<svg xmlns="http://www.w3.org/2000/svg" xmlns:xlink="http://www.w3.org/1999/xlink" width="291" height="291" viewBox="0 0 291 291">
  <defs>
    <style>
      .cls-1, .cls-2, .cls-3, .cls-4 {
        fill-rule: evenodd;
      }

      .cls-2 {
        fill: #be043d;
      }

      .cls-3 {
        fill: #fff;
      }

      .cls-4 {
        fill: url(#radial-gradient);
      }
    </style>
    <radialGradient id="radial-gradient" cx="141" cy="145.844" r="121.156" gradientUnits="userSpaceOnUse">
      <stop offset="0" stop-color="#91c44d"/>
      <stop offset="1" stop-color="#91c44d"/>
    </radialGradient>
  </defs>
  <path id="Color_Fill_9" data-name="Color Fill 9" class="cls-1" d="M120,13h6c4.309,5.955,8.09,14.514,13,18l9-6c13.59,5.266,10.723,12.883,11,24,9.553,2.206,14.906,2.3,18,11,3.756,8.65-2.754,12.444-6,17,8.9-.1,9.957,1.737,14,6,0.265,10.925-2.339,12.432-8,17q0.5,1,1,2c5.544-1.118,8.968,1.138,13,4q-0.5,3.5-1,7c-3.014,5.721-7.367,4.856-9,12q1,7.5,2,15c2.957-6.513,8.581-9.935,15-13,3.023,1.259,1.2-.018,3,2,21.878,21.74-19.321,54.378-16,61l12,6q0.5,3,1,6c-3.377,5.844-6.551,5.806-7,15,11.119-4.265,15.626,3.959,22,10l12-5,7,10h2c2.081-3.749,2.3-4.615,7-6,4.6,6.521,9.162,12.474,19,14l8-5c7.025,3.927,8.275,9.521,16,13l-1,5c-26.729,2.955-52.409,12.568-81,17l-26-3c-22.859,5.351-53.931,1.143-81,2l-83,3,2-4c3.377-7.227,9.519-8.931,16-13-6.818-24.761,12.8-27.74,13-51l-3-29c-8.546-14.971-38.461-21.71-32-48,11.331-.865,18.46,1.577,27,5l-8-27C17.757,63.555,66,29.245,86,14c8.392,1.067,11.081,6.907,17,6Z"/>
  <path id="Color_Fill_11" data-name="Color Fill 11" class="cls-2" d="M141,114h8v3q0.5,15,1,30l-1,1c-3.116-5.925-4.037-14.317-11-11l-4,18-24-4-6,11c-18.968-19.474,6.133-44.143,26-46l5,6Z"/>
  <path id="Color_Fill_10" data-name="Color Fill 10" class="cls-3" d="M115,47l8,1c-0.142,7.036-1.345,8.528-7,10-1.624-3.5-.991-2.2-4-4l1-3ZM55,90V84h4l2,2v3l-1,1H55Zm86-1c0.5,12.253-.808,21.576-6,28h-1c-3.109-11.15-8.665-18.183-16-25V91ZM89,102l-7,2-1,7-10-5c-3.407,5.2-4.058,10.177-7,17l-5-3-1-8c9.731-9.643,39.554-21.086,57-18l4,4q-0.5,3-1,6l-3-2c-1.938-3.693-1.081-3.1-6-4q-0.5,2.5-1,5c-3.527-2.371-4.035-3.414-10-4l-4,11-5-3v-5Zm51,35c3.222,2.57,5.778,5.327,7,10q-0.5,2.5-1,5l-10,2v-9Zm-31,19,6,5h-9v-1Zm-41,1,6,7v1H63l4-4Zm29,0,6,6-9,1v-4Zm-15,8c0.486-4.959.468-4.579,3-7,1.684,1.984,2.191,3.856,3,7H82Z"/>
  <path id="Gradient_Fill_2" data-name="Gradient Fill 2" class="cls-4" d="M74,264c-13.218-.029-25.965-0.752-34-2v5H21l4-5,10-4c-4.215-13.49.585-27.552,8-33,2.616,2.454,1.014,2.151,6,3l-4-81L33,105C23.753,66.794,60.143,37.689,82,29c71.721-28.513,117.882,91.466,82,139q0.5,2,1,4h1c13.681-5.937,20.527-28.834,31-39l2,1v2c11.341,19.763-15.328,42.257-23,52l9,15c3.194,12.078-4.871,17.306-3,23,33.017,0.49,58.352,17.152,88,23l-2,1c-22.305,11.8-80.7,22-98,2l-4,2v1l3,9H134v-3l1-3,7-3c-0.609-25.308,7.546-24.387,19-36q-0.5-2-1-4c-24.9,1.742-15.45,23.192-28,36,1.142-30.691-15.935-70.036-49-50C61.316,214.14,71.259,239.465,74,264ZM111,43c-7.438,5.882-12.166,9.132-12,23,4.043,9.074,8.384,14.305,22,14,10.957-5.116,14.084-15.824,10-30C124.971,45.36,122.685,42.813,111,43ZM53,78c-5.467,4.883-11.319,12.235-7,21a34.8,34.8,0,0,0,17,1l5-4-1-8L58,78H53Zm68,7L84,93c-13.532,5.277-23.818,15.159-36,21v2l5-2c3.059,16.324,11.884,31.816,8,53,39.261,0.865,67.72-1.9,94-15,7.118-26.334-3.2-47.288-8-67H121ZM12,131c19.169-.855,37.467,14.476,27,37L16,146C14.13,140.6,12.311,138.762,12,131Z"/>
</svg>
