<svg xmlns="http://www.w3.org/2000/svg" width="982" height="982" viewBox="0 0 982 982">
  <defs>
    <style>
      .cls-1 {
        stroke: #fff;
        stroke-linejoin: round;
        stroke-width: 15px;
      }

      .cls-1, .cls-2, .cls-3, .cls-4 {
        fill-rule: evenodd;
      }

      .cls-2 {
        fill: #fff;
      }

      .cls-3 {
        fill: #ff0;
      }

      .cls-4 {
        fill: #ff3dff;
      }
    </style>
  </defs>
  <path id="Color_Fill_5" data-name="Color Fill 5" class="cls-1" d="M509,120c65.537-.357,69.32,22.527,106,32l42-13c94.53-35.34,104.252-9.569,137,62l33,50c14.919,69.7-20.359,96.111,13,146,15.294,22.872,71.723-4.105,86,28v10q-11,20.5-22,41c-5.571,24.083,13.888,30.56,15,47l-3,8-26,37,10,47v1l-3,7-2,3q-1,2-2,4l-3,2-3,4c-23.663,17.791-53.145,1.314-81,0l-3,3v7c99.218,80.7-11.975,219.759-79,216-104.752-5.875-123.767-76.65-142-118l-165,2c-58.237-8.009-122.13-42.188-167-46-29.981-2.547-45.254,44.463-90,29l-18-19,7-49-37-27q1-24.5,2-49L74,562c-4.249-4.311-18.451-15.7-12-29,13.232-27.276,47.051-26,73-41,10.873-35.74,17.225-77.137,25-105l-10-42c-11.816-49.476,5.313-114.942,32-137,44.412-36.708,106.659-7.642,158-1C422.467,217.669,479.833,165.059,509,120Z"/>
  <path id="Color_Fill_6" data-name="Color Fill 6" class="cls-2" d="M509,120c34.19-.031,59.283.691,80,13l26,19,94-28c65.808-9.12,66.918,37.74,85,77l32,46c12.254,32.938-13.119,79.554-9,99q7.5,15.5,15,31c4.257,9.155,6.487,19.138,14,25l55,3c12.586,3.947,15.7,14.024,25,20-0.2,30.727-30.747,37.269-22,69q7.5,15.5,15,31c-5.911,16.772-22.52,23.77-28,38-11.876,30.838,37.6,68.988-22,82-26.2,5.718-42.782-11.89-64-8l-2,2v7c43.054,33.835,43.493,114.787,12,161-65.909,96.715-213.452,50.959-231-61-22.5-11.3-95.315,7.357-137,2-44.828-5.761-84.485-10.385-124-21l-79-27c-17.669,10.876-84.971,58.768-102,12l7-51c-4.855-15.739-32.469-14.929-39-30-4.324-9.979,4.684-20.839,6-30,3.885-27.05-26.646-25.652-40-36L62,550c-0.545-46.549,44.287-40.6,73-58q2-21,4-42c4.823-21.681,15.847-45.575,21-63l-11-48c-10.752-60.883,12.876-125.721,52-144,45.182-21.109,99.166,6.307,139,12,20.323,2.905,40.023-5.352,55-9,65.928-16.06,51.449-6.721,87-53Zm13,34-33,29c-10.16,11.276-15.174,34.943-29,42l-48,3-44,12c-51.092,8.641-125.135-49.838-165-5-20.006,22.5-30.4,80.691-19,121,3.061,10.819,14.394,20.6,10,38-4.22,16.709-17.5,36.927-22,52-6.279,21.031,7.842,54.953-3,71-13.287,16.1-50.752,9.262-65,25l1,4,3,2c18.82-.424,48.632-11.163,63-1,9.855,6.741,15.334,28.631,12,45-11.641,6.993-22.42,10.085-31,20l1,4,3,2c40.923-1.382,53.222-5.428,68,30-9.986,19.208-36.629,22.781-46,44q0.5,4,1,8c29.055,8.8,38.153-40.283,71-32l44,26c33.791,10.685,72.387,15.064,108,24h45c52.8,4.251,121.878-12.68,169-5l2,3c-1.684,77.616,49.947,138.121,132,112,43.728-13.921,72.793-73.038,54-132-6.7-21.026-29.893-32.718-42-49,8.158-13.809,28.885-38.555,44-45,20.855,2.36,38.4,17.865,60,15l2-3q-0.5-5-1-10c-15.356-10.35-37.894-14.517-52-26-8.067-70.232,39.222-30.964,68-52v-6l-5-5c-18.752-2.456-37.434-1.783-49-11-2.165-10.526-3.312-35.8,2-43,13.739-14.348,55.395,1.79,65-17q-0.5-2-1-4l-3-2c-17.217.443-53.817,4.9-65-3l-39-83c-3.206-11.5,19.427-63.335,10-94-4.334-14.1-20.952-20.281-27-32l-7-34c-11.642-35.054-57.4-43.1-96-25l-54,27C576.681,177.132,587.58,153.588,522,154Zm190,30c17.934,0.344,36.346,30.438,28,42-21.464.272-37.691,5.915-52,10-15.018,4.288-40.1-9.384-53-14v-2q0.5-1.5,1-3C657.921,201.927,688.259,199.317,712,184ZM234,248c48.784-.185,71.623,12.8,104,22,40.517,11.508,68.154-19.916,110-13l2,3c-0.854,66.428,19.274,116.54,100,96l30-10v1c10.556,3.585,21.569,11.906,34,15l36,1,23,26c13.582,11.753,56.3,19.535,77,8l20-17c10.176,5,29.944,46.506,21,59-10.633,10.413-46.748,7.584-31,32h38l2,3c0.528,12.222.333,24.143-4,31l-21,7c-2.967,16.09,7.953,17.411,17,24-0.113,34.082-17.289,26.042-39,38-2.587,15.274,7.59,17.34,8,28-4.609,4.368-6.242,7.058-13,7-8.212-21.181-39.928-44.032-70-24-27.6,18.385-7.959,28.923-16,57l-34,33c-65.431,36.757-306.507,14.259-346-25l10-19-4-6c-12.055-2.381-25.452-.166-34,3l-24-22,1-4,20-12q-1-4.5-2-9c-6.346-7.155-23.921-3.807-34-7-5.352-8.982-10.743-17.781-8-32l3-3c10.547-1.347,24.051-.705,31-5,1.379-6.116,1.146-11.111-2-15-8.894-9.322-36.292.516-41-13-19.247-55.261,42.961-113.971,37-154-6.409-3.471-19.823-3.948-24-10C190.032,311.616,221.208,258.634,234,248ZM648,484c-18.05,14.067-21.508,80.32,20,66C693.826,541.09,696.684,480.875,648,484ZM326,514c-28.871,22.223-6.418,80.578,23,57C370.919,557.817,363.356,511.549,326,514Zm162,40c-52.679,41.412,26.754,74.786,53,41C566.031,562.777,515.155,552.452,488,554Zm212,54,13,3c21.688,16.818-3.528,70.67,12,94l3,4h22l2-3V678c59.482,12.819,30.021,114.185-16,126-80.727,20.725-121.794-77.883-72-120l4,1,2,3c-0.694,14.389.1,23.836,6,31,7.345,1.676,18.268,1.724,23-2l5-7c-3.428-16.542-20.331-81.388-11-95Z"/>
  <path id="Color_Fill_3" data-name="Color Fill 3" class="cls-3" d="M504,567l21,9q-0.5,6-1,12c-10.639,8.6-39.128,10.462-38-8Z"/>
  <path id="Color_Fill_4" data-name="Color Fill 4" class="cls-4" d="M601,231c-87.532-4.7-94.378,69.71-40,78v14c-82.468,34.276-104.641-41.48-72-108C515.965,160.046,601.376,159.823,601,231Zm11,22c71.825-4.076,79.886,66.029,34,82C578.774,358.4,577.154,280.529,612,253Zm69,94c29.145,0.817,71.09-14.159,54-50-7.644-16.03-36.489-15.591-38-36,22.141-7.689,59.3-13.056,80,0C781.724,367.109,683.915,414.989,681,347ZM567,257l-4,21-12,1q1-11,2-22h14Zm130,62q1-8,2-16h12q1,7,2,14l-2,2H697Z"/>
</svg>
