<svg xmlns="http://www.w3.org/2000/svg" xmlns:xlink="http://www.w3.org/1999/xlink" width="1000" height="1000" viewBox="0 0 2000 2000">
  <defs>
    <style>
      .cls-1, .cls-2 {
        fill-rule: evenodd;
      }

      .cls-1 {
        fill: url(#radial-gradient);
      }
    </style>
    <radialGradient id="radial-gradient" cx="989.264" cy="1003.47" r="968.47" gradientUnits="userSpaceOnUse">
      <stop offset="0" stop-color="#f6eead"/>
      <stop offset="1" stop-color="#c1ac51"/>
    </radialGradient>
  </defs>
  <path id="Gradient_Fill_1" data-name="Gradient Fill 1" class="cls-1" d="M1292,35c48.3-.345,74.78,19.871,92,50,22.73,39.765,8.46,102.267,15,160,7.69,67.895,18.12,121.2,24,190q1.005,98.49,2,197c5.59,64.742-25.18,127.282-21,183,1.85,24.669,2.06,66.27,8,93q15.495,42.5,31,85c4.1,27.25-13.77,28.01-20,43-25.61,61.65-25.77,136.16-51,190-18.29,39.02-50.42,82.5-83,108q-24.99,19.005-50,38c-13.08,41.02-13.66,194.37-3,235,6.29,23.98,33.75,65.98,23,99-10.13,31.1-47.8,43.91-75,59-14.42,55.88-2.43,136.93-50,158-16.8,7.44-38.37.12-51-5-83.863-34.02-24.59-66.77-27-130q-56-2.505-112-5c-0.667.67-1.333,1.33-2,2-1.365,78.62,88.6,141.32-12,174-10.668,3.46-40.437,19.4-58,10-46.988-25.15-33.779-119.33-64-163-22.36-32.31-139.385-4.55-151-65q9-45.495,18-91,7.5-112.485,15-225-6.5-53.49-13-107c-9.734-25.73-41.627-45.32-54-74-19.448-45.08-24.293-105.64-33-161q-13.5-210.478-27-421c3.614-26.272,28.833-90.025,26-103l-46-53q-1.5-31.5-3-63c-11.593-102.6-14.125-287.56,117-260,76.092,15.993,49.854,136.574,43,210q9.5,56.994,19,114c5.854,45.466-6.937,114.48,10,150h7l3-1,6-45c7.433-33.477,28.083-61.705,50-81,49.782-43.826,132.731,18.791,173,27l33-36c45.69-27.136,126.37,6.24,154,27,17.97,13.5,45.1,110.25,54,104-0.42-67.212,10.66-113.443,18-171,3.49-27.351-9.55-39.5-12-58q6-68.992,12-138c4.99-60.554-22.39-137.543-3-195C1234.53,58.788,1260.31,45.657,1292,35Z"/>
  <path id="Color_Fill_15" data-name="Color Fill 15" class="cls-2" d="M1299,37c46.73,0.523,74.19,24.329,88,57,21.91,51.822,4.27,137.676,13,200,14.92,106.44,36.18,255.4,23,390-7.51,76.643-23.94,135.886-12,220,4.49,31.641,37.93,63.385,31,103-3.42,19.51-21.57,38.06-27,57-10.88,37.96-8.28,66.98-20,106-13.29,44.24-39.6,89.01-66,122l-89,80q2.505,10.5,5,21c-10.78,34.53-17.59,160.06-11,207,4.38,31.23,34.03,64.5,23,105-9.34,34.29-67.54,46.17-75,64-21.03,50.25-1.47,86.92-26,125-1.67.33-3.33,0.67-5,1,14.09-52.78,42.92-181.39-41-173q-4.005,6-8,12h-2q-4.5-8.505-9-17l-23,3c-9.16,37.67,13.26,96.22-18,120q2.505-25.5,5-51c-36.14-7.34-101.474-16.64-118,5h-3q-11-22.995-22-46H898q-14,10.995-28,22c-18.137,4.27-37.118-13.94-55-6-10.957,46.35,25.446,132.68,46,164h13c0.333,0.33.667,0.67,1,1q-2,10.5-4,21l36,9v2c-89.559,36.63-59.351-123.33-101-158-40.11-33.39-110.862-2.07-145-54-11.129-16.93,38.608-272.79,28-340-3.012-19.08-7.551-38.01-16-54l3-39c-9.7-28.06-43.463-48.53-56-81l-31-146q-0.5-42.99-1-86c-7.793-58.885-2.328-132.506-12-201-7.724-54.7-21.694-129.307-5-191l18-27c10.727-32.748-19.56-32.748-21-55l12-2q0.5-4.5,1-9l-11-9-2,2-3,11c-52.768-9.3-54.219-396.992,95-342,86.238,31.782,24.826,152.364,40,228,6.168,30.746,18.839,75.278,24,100,8.861,42.441-16.7,114.08,6,152l5,1,3-2c16.735-66.948,44.1-177.326,152-138,20.921,7.625,45.01,29.755,72,36,19.569,4.528,34.252-37.445,54-42,76.89-17.733,144.41,27.82,165,72q9.495,33.5,19,67h6l3-3c2.37-21.1-16.75-36.5-9-54,13.13-29.618,33.22-89.3,29-131-2.54-25.081-13.95-45.651-14-76q6-54.495,12-109c-4.44-54.317-21.43-138.128-3-190C1235.38,58.975,1262.66,45.7,1299,37Zm3,14c-26.82,6.131-45.7,11.218-58,31-11.5,18.5-17.27,179.194-2,191,34.42,26.617,90.23,5.15,127,0,0.33,0.333.67,0.667,1,1-10.69,66.651-90.73,42.253-124,15l-6,1c-11.76,22.178-3.05,51.662-7,83-11.12,88.251,20.29,201.528,125,169,62.29-19.349,9.38-96.651,24-161q9.495-5.5,19-11-7.5-49.995-15-100C1373.51,170.094,1406.49,58.345,1302,51ZM640,197c-32.715,7.667-49.874,16.863-67,39-10.07,13.016-46.579,136.25-12,151C704.66,448.281,743.3,199.528,640,197Zm700,10c11.75,10.8-28.1,38.445-50,34v-3C1306.02,222.933,1316.23,215.812,1340,207Zm55,189c-14.56,14.164-6.99,45.935,1,64,1.67,1,3.33,2,5,3,1.67-1,3.33-2,5-3,6.11-16.839,4.13-50.011-3-63Zm-771,5c-35.966,10.264-88.269,25.235-73,79l8,2c44.8-51.786,42.055-2.68,60,33h1l12-10q1.5,23.5,3,47l-20-9c-5.544,7.342-7.356,12.772-1,20l23,2c15.463,20.016-7.176,45.418-15,62l2,2c24.371-10.556,61.5-13.848,76-34,12.942-17.98-1.983-177.975-14-188Zm-35,75-7,9c3.264,12.441,5.624,47.972,20,43C608.949,509.969,605,481.243,589,476Zm445,50c-59.187,14.755-66.785,52.962-78,117-2.434,13.9-10.156,33.656-3,45,14.916-12.115,75.21-108.3,111-65q19.5,28,39,56c19.76-6.267,32.81-47.46,42-65h5q4.995,15,10,30l6,1c10.82-6.272,13.35-15.088,10-30C1162.18,553.539,1108.75,524.2,1034,526Zm368,3c-42.27,56.273-127.98,2.713-171,11-53.17,74.363,19.56,144.6,78,143,28.7-.786,27.56-18.918,47-24l31,3c28.49-8.268,23.08-51.424,23-87C1409.96,558.536,1411.3,536.623,1402,529Zm-542,2-59,12c-5.281,11.281-1.223,18.838,8,24l10-3q-2-6-4-12l2-1h22q0.5,6.5,1,13l42-5q0.5,1.5,1,3c-5.212,21.435-33.188,61.465-64,55-6.22-15.643-16.547-18.382-29-27-62.325-43.131-24.013,263.986-24,264l2,3c21.231,14.639,63.347,6,94,9v4l-13,9q1,2,2,4c21.094,5.746,44.6,4.412,60,12l3-3q-2-18-4-36c7.327-44.775,44.93-242.318,33-280C934.886,550.372,889.988,535,860,531Zm190,8,16,4q1.005,18,2,36c-17.86,12.289-50.31,10.574-67-1C990.437,543.578,1023.13,543.713,1050,539ZM616,574l-19,9q2.5,15,5,30l8,1,19-33-3-5Zm423,56c-65.283,28.044-91.872,110.339-27,160,21.13,16.175,67.32-3.829,85,18q-8.505,12-17,24c0.67,2,1.33,4,2,6l80,12c-0.33,2-.67,4-1,6-67.73,23.269,1.87,114.158,39,126,25.85,8.242,47.2-4.663,67-8,0.67,0.667,1.33,1.333,2,2-6.58,25.49-42.63,37.3-63,50q1.005,5.505,2,11c-29.01,2.87-40.08-12.81-61-11-21.98,33.04-44.16,66.31-76,89-30.86,22-54.74,22.78-72,59l-9-3c-15.1,26.61-7.417,58.9-15,96-17.948-15.39-11.464-50.73-22-74-14.692-32.45-62.734-94.02-111-62-1-.33-2-0.67-3-1-18.417-50.11-69.756,10.99-92,19q0.5-3,1-6,25-25.5,50-51l-4-9c-32.218-7.91-50.838,13.86-74,21,0.333-1.67.667-3.33,1-5,19.851-18.86,41.353-22.22,67-37q-2.5-29.49-5-59c-18.019-65.76-60.923-58.179-122-41l-36,7q-5.5,28.5-11,57c-16.627,110.83,34.282,212.04,101,250,24.579-12.79,25.205-52.16,52-61-5.58,27.09-31.7,40.82-28,74,30.011,24.48,115.532,57.51,171,46q32-10.005,64-20c-19.239,38.48-84.48,31.13-103,57,0.667,0.67,1.333,1.33,2,2q63.993-7.995,128-16-1-7.5-2-15c51.94-8.27,88.08,27.27,145,14q-1.005-7.5-2-15v-1q13.5,1.005,27,2v-3c-13.23-22.97-60.08-34.63-58-68,23.52,14.82,44.26,49.91,80,48l3-3c0.33-1.67.67-3.33,1-5q-10.005-7.995-20-16c-0.33-1.67-.67-3.33-1-5,18.74,4.97,28.54,21.23,52,19,19.93-19.6,17.24-43.47,31-71q6.495-1.005,13-2l-2-2q-7.995-1.005-16-2c-6.58,6.78-10.45,16.13-22,18q-9-20.505-18-41-13.995,1.995-28,4-1.995-9-4-18,6-1.995,12-4l-22-50,1-1c18.73,0.65,21.22,4.96,33,9,1.33-.67,2.67-1.33,4-2,0.33-2,.67-4,1-6q-2.505-4.995-5-10c1.67-1,3.33-2,5-3l15,6c0.27,13.62-8.21,12.02-12,24,14.64,9.81,25.03,13.74,40,8q21,36.99,42,74,1.005-7.005,2-14c25.38,4.01,45.48,15.49,59-9q-1.995-7.5-4-15c-9.68,12.5-45.15,11.46-60,18q-9-21.495-18-43,9.495,2.505,19,5v11c1,0.33,2,.67,3,1q10.5-5.505,21-11-3.495-7.005-7-14c1.67-1,3.33-2,5-3q6,0.495,12,1,4.995,10.995,10,22c12.22-17.66,18.31-5.56,35-17,13.73-9.41,25.18-64.86,16-83h-2l-18,9c-0.14-21.22,10.59-35.54,9-54q-18-10.005-36-20,6-24,12-48c-2.4-12.091-28.14-15.155-16-48l29,5c7.88-9.706,12.07-23.724,3-35l-36-9c-34.8-19.284-54.52-59.851-86-81h-5c-5.9,10.323-7.74,20.406-23,22,1.82-17.994,14.54-40.532,2-54q-6.495,5.5-13,11c-1.67-.333-3.33-0.667-5-1l3-27c-6.5-4.084-83.77-38.89-87-39-36.51-1.244-44.84,60.865-106-3-6.13-6.4-18.79-16.753-14-33q26.49-23,53-46l-3-7Zm-362,3c-69.3,15.84-108.521,16.574-97,100,2.663,19.283.357,33.144,13,42,19.445,2.948,20.535-10.083,31-15,42.522-19.979,118.443-34.891,86-110C704.4,637.038,696.294,632.415,677,633Zm-90,3-7,7q0.5,3,1,6l7,1,3-2,3-8Zm475,26-3,16c-12.82,1.132-32.44,2.356-42,6q-2.5,4.5-5,9c7.94,26.073,87.34,66.28,88,13C1092.82,691.635,1079.99,665.284,1062,662Zm298,13c-20.05,13.87-10.02,24.795-40,40,0.33,1.333.67,2.667,1,4,15.84,24.3,39.55,39.224,76,38C1421.71,724.119,1390.73,679.951,1360,675Zm-165,47q-2.505,4-5,8,20.505,13.5,41,27c29.46,36.059,83.61,138.89,128,59,5.27-9.482,8.82-18.238,3-29ZM945,750q-7,54.995-14,110c10.961,28.892,82.95,33.818,108,14-0.33-2.333-.67-4.667-1-7C1011.82,847.465,950.567,752.573,945,750Zm-212,5c-59.56,21.839-191.2,74.116-137,175,40.545,11.5,123.624-22.5,142-45C748.875,871.681,754.334,760.953,733,755Zm302,50q-9.495,4.5-19,9c-0.33,2.333-.67,4.667-1,7,5.73,10.989,14.92,23.3,31,24l18-32Q1049.495,809,1035,805ZM809,877c0.771,5.1-.766,5.121,7,6l2-2-1-1Zm214,19-61,7v2l1,1c22.223,8.114,60.29,13.871,73-7l-3-3h-10Zm368,18c-16.47,14.14-13.86,27.809-37,38-0.33,2-.67,4-1,6,11.73,16.685,6.28,21.863,11,42,14.71,8.51,43.49,16.17,58,6C1431.08,978.263,1411.34,921.442,1391,914Zm-383,43-24,9q-0.5,3-1,6l4,3c26.12-3.289,50.02,6.465,73,4-0.33-1-.67-2-1-3C1046.3,964.526,1032.98,956.377,1008,957Zm-151,1c-20.543,6.918-38.4,6.99-39,34l6,2,25-25,38,3h1v-2q-0.5-1.5-1-3C879.879,959.349,873.049,957.205,857,958ZM677,986c49.391-1.435,29.759,78.49-12,55C656.943,1018.8,661.338,996.378,677,986Zm5,10-6,5q4.5,12.5,9,25,5.5-1.005,11-2C698.445,1010.47,693.332,999.119,682,996Zm182,5q-6,5.5-12,11c0.333,0.67.667,1.33,1,2l36,6c0.667-.67,1.333-1.33,2-2,0.333-1.67.667-3.33,1-5C886.311,1004.73,876.842,1002.01,864,1001Zm143,17q-4,2.5-8,5-0.5,3-1,6c1,1.33,2,2.67,3,4,1.33,0.67,2.67,1.33,4,2q6.5-4.005,13-8c-0.33-2-.67-4-1-6Zm36,1c-3.61,6.7-2.59,8.9,4,13,2.67-1,5.33-2,8-3-0.33-1.67-.67-3.33-1-5Q1048.495,1021.5,1043,1019Zm-201,9q-2,8.505-4,17c2,1.33,4,2.67,6,4q4.5-3.495,9-7Q847.5,1034.995,842,1028Zm35,6q-0.5,4.5-1,9c7.652,7.85,31.8,13.98,43,14,0.333-.67.667-1.33,1-2-0.333-1.67-.667-3.33-1-5Q898,1042.005,877,1034Zm236,70c14.24,3.49,31,.45,47,6,0.67,3,1.33,6,2,9-7.53,1.67-8.66.59-11,8q14.505,33.495,29,67c-28.96-7.27-30.12,5.08-54,10l-9-30q6-4.005,12-8C1129.87,1143.89,1104.59,1126.72,1113,1104Zm143,40h8l1,1v11c-9.08.95-9.8,0.87-15,7q-4.995-2.505-10-5v-7Q1247.995,1147.505,1256,1144Zm-50,33q-3.495,3-7,6c0.33,1.33.67,2.67,1,4q21,10.995,42,22-1.005,6.495-2,13c0.67,0.33,1.33.67,2,1,10.9-.34,20.31-6.41,18-17C1243.57,1194.72,1228.37,1182.93,1206,1177ZM721,1363c-23.8,33.24,107.382,76.07,153,49,0.333-.67.667-1.33,1-2q-0.5-1.5-1-3-43.5-6.495-87-13Q754,1378.505,721,1363Zm281,39q-7,1.005-14,2v1l109,30,45,3c-30.26,37.47-119.5-8.5-147-15q-3.5,7.005-7,14h-4c-5.715-9.69-9.372-16.04-23-18-26.95-3.87-202.486,20.36-217,33-18.306,15.94-13.7,49.3-20,78-11.149,50.76-15.473,72.46,11,108-0.667.67-1.333,1.33-2,2-22.608.52-25.964-8.12-38-17h-2c-1,2.67-2,5.33-3,8,16.072,17.79,51.411,41.87,85,37,26.294-46.79,71.839-21.33,100,2,19.739-10.45,29.864-2.18,54-10,43.443-14.08,75.82-42.74,131-29,1.33-.67,2.67-1.33,4-2,4.84-26.63,32.59-35.96,52-16,2.22,34.71,24.46,38.85,52,52q1.5,9.495,3,19c22.89,7.88,46.14-12.57,51-30q-10.995-33-22-66c-5.68-48.73,34.27-145.35-9-171-1.33-.33-2.67-0.67-4-1l-76,9Q1056.505,1413.5,1002,1402Zm-71,46h5c18.082,24.52,19.985,148.69,1,176h-4Q932,1536.01,931,1448Zm52,3c26.31,6.4,18.44,146.29,6,169l-8-3C969.67,1559.26,948.9,1494.49,983,1451Zm42,22c4.52,2.89,4.72,3.99,3,10Q1026.5,1478.005,1025,1473Zm1,12c8.03,5.64,8.32,29.11,2,37-1.67-.33-3.33-0.67-5-1Zm131,116c17.78-1.14,62.11,33.69,41,48C1169.13,1668.57,1129.54,1623.75,1157,1601Zm9,17c-9.98,17.1,20.55,24.17,18,10Q1175,1623.005,1166,1618Zm-82,22q-27,15.495-54,31c-19.06,3.34-29.8-14.98-51-7l-48,18c-9.639,7.97-8.823,20.39-22,26l-58,6-54,21-107,9q-0.5,3-1,6c14.955,18.88,64.331,34.83,96,31,1.333-1.33,2.667-2.67,4-4-0.333-2.67-.667-5.33-1-8q-5.5-4.005-11-8c0.667-2.33,1.333-4.67,2-7q46-2.505,92-5,21.5-7.995,43-16c18.578-1.66,30.258,10.04,46-1q-2-8.505-4-17c0.667-.33,1.333-0.67,2-1,58.71,9.79,40.282-21.16,78-29,15.16-3.15,106.5,37.18,119,40,30.53,6.89,37.94-11.89,58-15q-6.495,13.005-13,26l3,3c22.36-2.9,36.41-23.83,47-39-0.67-2.33-1.33-4.67-2-7l-3-3c-27.93-2.75-47.77,20.04-78,10C1128.43,1687.2,1102.79,1641.64,1084,1640Zm-271,11q-4.5,3.495-9,7,2,6,4,12,9-.495,18-1l3-9C825.286,1653.45,823.215,1651.28,813,1651Zm31,32-2,3c2-.67,4-1.33,6-2C846.667,1683.67,845.333,1683.33,844,1683Zm193,21c-12,10.35-14.16,18.58-20,36-19.024,8.35-52.653,2.9-68,14v11c48.636,34.07,125.9,10.57,97-58Zm-91,130c9.483,3.05,13.833,21.25,11,32Q951.5,1850,946,1834Zm129,11c22.49,1.03,53.16,16.48,59,34v1Q1104.51,1862.5,1075,1845Zm-36,15c35.21,28.92,35.66,71.24,104,47v1c-0.33,1.67-.67,3.33-1,5q-4.5,7.005-9,14c-58.33,1.82-68.01-33.48-103-53C1030.4,1863.17,1032.78,1864.19,1039,1860Zm-75,26c58.38,28.36-24.311,66.61-38,80q-6.5-3.495-13-7v-1c19.438-13.29,55.052-11.77,58-41C972.452,1902.61,961,1900.39,964,1886Zm-35,5q9.5,1.005,19,2c0.333,1.67.667,3.33,1,5q-12-.495-24-1Z"/>
</svg>
